<svg height='300px' width='300px'  fill="#000000" xmlns:dc="http://purl.org/dc/elements/1.1/" xmlns:cc="http://creativecommons.org/ns#" xmlns:rdf="http://www.w3.org/1999/02/22-rdf-syntax-ns#" xmlns:svg="http://www.w3.org/2000/svg" xmlns="http://www.w3.org/2000/svg" xmlns:sodipodi="http://sodipodi.sourceforge.net/DTD/sodipodi-0.dtd" xmlns:inkscape="http://www.inkscape.org/namespaces/inkscape" viewBox="0 0 75.146771 75" version="1.1" x="0px" y="0px"><path style="" d="m 28.175358,-0.07300982 c -1.723706,0.003 -3.126434,1.40726002 -3.126434,3.13096002 V 24.97592 H 3.1309574 C 1.4039077,24.97592 -1e-6,26.37982 -1e-6,28.10687 v 18.78676 c 0,1.72638 1.4039087,3.13121 3.1309584,3.13121 H 25.048924 v 21.91721 c 0,1.72638 1.404576,3.13096 3.130958,3.13096 h 18.787007 c 1.727049,0 3.130958,-1.40458 3.130958,-3.13096 V 50.02484 h 21.917966 c 1.723706,0 3.128282,-1.40265 3.130959,-3.1297 V 28.1016 c -0.0027,-1.72371 -1.407253,-3.12568 -3.130959,-3.12568 H 50.097847 V 3.0579502 c 0,-1.7237 -1.402651,-3.12828002 -3.129701,-3.13096002 z m 0.0033,3.13096002 H 46.966889 V 26.54115 c 0,0.86486 0.700868,1.56572 1.56573,1.56572 H 72.015813 V 46.89363 H 48.532619 c -0.864862,0 -1.56573,0.70103 -1.56573,1.56523 V 71.94205 H 28.179882 V 48.45886 c 0,-0.8642 -0.701034,-1.56523 -1.565229,-1.56523 H 3.1309574 V 28.10687 H 26.614653 c 0.864195,0 1.565229,-0.70086 1.565229,-1.56572 z m 9.394635,6.26192 c -0.400492,0 -0.800888,0.1529 -1.106567,0.4589096 L 33.335768,12.90999 c -0.612026,0.61136 -0.612026,1.60186 0,2.21389 0.611356,0.61135 1.602028,0.61135 2.213385,0 l 0.45866,-0.45891 v 5.61401 c 0,0.86486 0.701119,1.56573 1.565982,1.56573 0.864195,0 1.565229,-0.70087 1.565229,-1.56573 v -5.61401 l 0.45866,0.45891 c 0.305679,0.30568 0.706411,0.45816 1.107069,0.45816 0.40066,0 0.801392,-0.15248 1.10707,-0.45816 0.611357,-0.61203 0.611357,-1.60253 0,-2.21389 L 38.68011,9.7787798 C 38.374431,9.4727702 37.973784,9.3198702 37.573293,9.3198702 Z M 14.090349,32.80331 c -0.400576,0 -0.801308,0.15299 -1.107321,0.45866 l -3.1309581,3.13096 c -0.6113568,0.61203 -0.6113568,1.60278 0,2.21414 l 3.1309581,3.13096 c 0.305678,0.30568 0.70641,0.45891 1.10707,0.45891 0.40066,0 0.801139,-0.15323 1.106818,-0.45891 0.611357,-0.61136 0.611357,-1.60203 0,-2.21338 l -0.458661,-0.45892 h 5.613759 c 0.864863,0 1.565982,-0.70087 1.565982,-1.56573 0,-0.86419 -0.701119,-1.56523 -1.565982,-1.56523 h -5.613759 l 0.458661,-0.45891 c 0.611357,-0.61136 0.611357,-1.60186 0,-2.21389 -0.305679,-0.30567 -0.705991,-0.45866 -1.106567,-0.45866 z m 46.966889,0 c -0.400492,0 -0.801139,0.15299 -1.106817,0.45866 -0.612027,0.61203 -0.612027,1.60253 0,2.21389 l 0.458158,0.45891 h -5.61376 c -0.864194,0 -1.565982,0.70104 -1.565982,1.56523 0,0.86486 0.701788,1.56573 1.565982,1.56573 h 5.61376 l -0.458158,0.45892 c -0.612027,0.61135 -0.612027,1.60202 0,2.21338 0.305678,0.30568 0.705656,0.45891 1.106316,0.45891 0.400659,0 0.80139,-0.15323 1.107068,-0.45891 l 3.130959,-3.13096 c 0.612026,-0.61136 0.612026,-1.60211 0,-2.21414 L 62.163805,33.26197 C 61.858127,32.9563 61.457731,32.80331 61.057238,32.80331 Z M 37.573794,53.1558 c -0.864863,0 -1.565982,0.70087 -1.565982,1.56573 v 5.61401 l -0.458661,-0.45891 c -0.611357,-0.61136 -1.602029,-0.61136 -2.213384,0 -0.612027,0.61136 -0.612027,1.60211 0,2.21414 l 3.130958,3.13096 c 0.305678,0.30567 0.706409,0.45891 1.107069,0.45891 0.400659,0 0.800637,-0.15324 1.106316,-0.45891 l 3.131712,-3.13096 c 0.611357,-0.61203 0.611357,-1.60278 0,-2.21414 -0.612026,-0.61136 -1.602782,-0.61136 -2.214139,0 l -0.458661,0.45891 v -5.61401 c 0,-0.86486 -0.701034,-1.56573 -1.565228,-1.56573 z" stroke-width="1"></path></svg>