<svg xmlns="http://www.w3.org/2000/svg" viewBox="0 0 10047 11642"><path d="M5019.046 1496.501L1132.626 124.833V8583.55l3886.42-1257.376V1496.5z"/><path d="M4925.754 1492.251L8960.966 120.625V8579.34L4925.754 7321.964V1492.251zM124.833 10064.3l4800.92-1600.21V1491.335l-4800.92 1600.21V10064.3z" fill="#FFF"/><path d="M7113.38 10169.633l680.418 1119.418 358.792-1039.876-1039.21-79.542zM1757.251 3894.795c-25.5-25.042 33.209 204.625 114.917 287.25 144.875 146.167 258.042 165 318.292 167.417 133.334 5.333 297.875-33.209 395.584-74.167 94.541-40.333 260.208-124.917 322.917-248.292 13.291-26.375 49.583-70.667 26.791-180.083-17.291-84.167-70.875-113.625-136.208-108.959-65.333 4.417-263.125 57.167-358.792 86.584-95.708 29.041-292.834 89.041-378.75 107.666-85.709 18.584-274.667-8.625-304.75-37.416zM4179.587 6640.297c-37.834-13.75-820.584-338-931.543-391.125-90.791-43.667-313.417-137.792-418.167-180.542 295.042-454.917 481.292-798.21 506.084-850.5 45.875-95.668 358.167-706.751 365.459-744.376 7.083-38.125 15.958-178.959 9.083-212.417-6.875-34.125-121.375 31.458-276.834 84.166-155.708 52.5-451.625 244.959-565.917 269.084-114.708 23.917-481.292 162.792-668.875 225.042-187.584 62.25-542.417 170.542-688.376 209.958-146.167 39.417-273.75 42.542-355.5 67.334 0 0 10.875 114.5 32.583 148.833 21.459 34.334 98.792 118.5 188.709 142 89.917 23.667 238.75 14.167 306.542-1.333 67.75-15.75 185.125-73.083 200.875-98.125 15.917-25.458-8.208-103.875 18.583-127.584 27.042-23.458 384.292-106.958 519.167-147.708 134.875-41.458 651.167-219.292 721.168-210.208-22.167 73.541-437.46 896.125-571.21 1141.542-133.791 245.375-910.958 1324.918-1076.417 1515.168-125.583 144.625-429.917 514.709-535.334 598.209 26.584 7.333 215.042-8.834 249.376-30.084 213.958-131.791 570.333-575.417 685.084-710.542 341.083-400 640.75-820.167 878.375-1180.75h.25c46.292 19.29 420.584 324.25 518.25 391.833 97.667 67.542 483.084 282.583 566.584 318.25 83.5 36.125 404.417 184.084 417.917 134 13.5-50.5-58.041-345.75-95.916-360.125z"/><path d="M2370.835 10716.675c75 45.834 145.834 83.334 225 120.834 158.334 79.166 337.5 162.5 508.334 225 233.334 87.5 466.667 158.333 700 212.5 129.167 29.167 270.834 54.167 408.334 75 12.5 0 383.334 45.833 458.334 45.833h375c145.834-12.5 283.334-20.833 429.167-41.666 116.667-16.667 245.834-37.5 370.834-66.667 91.667-20.833 187.5-41.667 279.167-70.833 87.5-25 187.5-58.334 283.333-91.667 62.5-20.833 129.167-50 195.834-75 54.167-25 120.833-54.167 183.333-79.167 75-33.333 162.5-79.167 245.834-120.833 66.667-33.334 141.667-75 212.5-116.667 54.167-29.167 179.167-125 245.834-125 75 0 125 66.667 125 125 0 120.833-162.5 158.333-237.5 212.5-79.167 54.167-175 95.833-258.334 141.667-166.667 87.5-337.5 162.5-500 225-212.5 79.167-445.834 154.167-654.168 204.167-79.166 16.667-158.333 37.5-237.5 50-41.666 8.333-475 75-595.834 75h-550c-145.833-12.5-300-29.167-445.834-50-129.166-20.833-266.667-45.833-395.833-75-100-20.833-208.334-50-304.167-79.167-166.667-45.833-329.167-104.167-487.5-166.667-287.5-108.333-587.501-250-870.835-437.5-50-33.333-54.166-66.667-54.166-104.167 0-62.5 45.833-120.833 120.833-120.833 66.667 0 200 95.833 225 108.333zM5050.004 1475.001v7000.006c-4.167 20.833-12.5 41.666-29.167 62.5-8.333 12.5-25 29.167-37.5 33.333C4879.171 8612.507 187.5 10187.508 125 10187.508c-50 0-95.833-33.333-120.833-87.5 0-4.167-4.167-8.333-4.167-16.667V3079.17c8.333-20.833 12.5-50 29.167-66.667 33.333-45.833 91.666-54.166 129.166-66.666 70.834-25 4691.67-1575.002 4758.338-1575.002 41.666 0 133.333 29.167 133.333 104.167zM4795.837 8370.84L254.167 9883.341V3183.336l4541.67-1512.501V8370.84z" fill-rule="evenodd"/><path d="M9087.507 133.333v8429.174c-4.166 95.833-70.833 137.5-133.333 137.5-54.167 0-445.834-133.333-512.5-154.167-525.001-162.5-1054.168-325-1575.002-487.5-116.667-37.5-237.5-75-350-112.5-100-29.167-208.334-62.5-308.334-95.834-445.833-137.5-900-275-1345.834-425-16.667-4.167-58.333-62.5-58.333-75V1462.5c8.333-20.833 16.666-45.833 37.5-62.5 33.333-37.5 1462.5-512.5 2025.001-700C7016.672 645.834 8895.84 0 8954.174 0c75 0 133.333 54.167 133.333 133.333zm-254.167 8270.84l-3779.17-1175V1583.334L8833.34 300v8104.173z" fill-rule="evenodd"/><path d="M10046.716 10169.633l-5048.795-1609.21 21.125-7005.422 5027.67 1600.21v7014.422z"/><path d="M7204.09 3554.961l650.458 197.042 1185.043 4270.92-668.126-202.708-240.042-876.793-1380.75-418.5-296.918 714.25-668.334-202.75 1418.668-3481.46zm297.374 1130.668l-495.542 1197.75 911.043 276.168-415.5-1473.918z" fill="#FFF"/></svg>