<svg xmlns="http://www.w3.org/2000/svg" viewBox="0 0 202.9 202.9"><defs><style>.cls-1{fill:#000;}</style></defs><title>mqtt</title><g><g><path class="cls-1" d="M.6,115H0v77.6a10.24,10.24,0,0,0,10.2,10.2H90.1C89.4,154.3,49.5,115,.6,115Zm0-64H0V84c65.9.3,119.5,53.3,120.2,118.8h34.2C153.8,119,85,51,.6,51ZM202.9,192.7V122.6A218.43,218.43,0,0,0,74.8,0H10.2A10.24,10.24,0,0,0,0,10.2v9.9c101.4.3,183.9,82,184.5,182.8h8.2a10.31,10.31,0,0,0,10.2-10.2ZM176.2,28.3a286.4,286.4,0,0,1,26.7,31.8v-50a10.07,10.07,0,0,0-10-10.1H141.3C153.2,8.3,165.6,17.8,176.2,28.3Z"/></g></g></svg>