G04 Generated by Ultiboard 14.1 *
%FSLAX34Y34*%
%MOMM*%

%ADD10C,0.0001*%
%ADD11C,0.7500*%
%ADD12C,0.5000*%
%ADD13C,0.1270*%
%ADD14C,1.9000*%
%ADD15R,1.1000X1.1000*%
%ADD16C,1.0000*%
%ADD17C,2.1000*%
%ADD18R,0.9000X0.9000*%
%ADD19R,1.0000X1.0000*%
%ADD20C,2.0000*%


G04 ColorRGB 00FF00 for the following layer *
%LNCopper Top*%
%LPD*%
G54D10*
G54D11*
X314700Y94460D02*
X314700Y119860D01*
X329940Y119860D02*
X329940Y94460D01*
X329940Y119860D02*
X329911Y120519D01*
X329825Y121173D01*
X329682Y121817D01*
X329484Y122446D01*
X329232Y123056D01*
X328927Y123641D01*
X328573Y124197D01*
X328171Y124720D01*
X327725Y125207D01*
X327239Y125652D01*
X326716Y126054D01*
X326159Y126408D01*
X325574Y126713D01*
X324965Y126966D01*
X324336Y127164D01*
X323692Y127307D01*
X323038Y127393D01*
X322378Y127422D01*
X321719Y127393D01*
X321065Y127307D01*
X320421Y127164D01*
X319792Y126966D01*
X319183Y126713D01*
X318598Y126408D01*
X318041Y126054D01*
X317518Y125652D01*
X317032Y125207D01*
X316586Y124720D01*
X316184Y124197D01*
X315830Y123641D01*
X315525Y123056D01*
X315273Y122446D01*
X315075Y121817D01*
X314932Y121173D01*
X314846Y120519D01*
X314817Y119860D01*
X314700Y94460D02*
X314729Y93796D01*
X314816Y93137D01*
X314960Y92488D01*
X315160Y91854D01*
X315414Y91240D01*
X315721Y90650D01*
X316078Y90089D01*
X316483Y89562D01*
X316932Y89072D01*
X317422Y88623D01*
X317949Y88218D01*
X318510Y87861D01*
X319100Y87554D01*
X319714Y87300D01*
X320348Y87100D01*
X320997Y86956D01*
X321656Y86869D01*
X322320Y86840D01*
X322984Y86869D01*
X323643Y86956D01*
X324292Y87100D01*
X324926Y87300D01*
X325540Y87554D01*
X326130Y87861D01*
X326691Y88218D01*
X327218Y88623D01*
X327708Y89072D01*
X328157Y89562D01*
X328562Y90089D01*
X328919Y90650D01*
X329226Y91240D01*
X329480Y91854D01*
X329680Y92488D01*
X329824Y93137D01*
X329911Y93796D01*
X329940Y94460D01*
X329940Y94460D01*
X287020Y69540D02*
X261620Y69540D01*
X261620Y84780D02*
X287020Y84780D01*
X261620Y84780D02*
X260961Y84751D01*
X260307Y84665D01*
X259663Y84522D01*
X259034Y84324D01*
X258424Y84072D01*
X257839Y83767D01*
X257283Y83413D01*
X256760Y83011D01*
X256273Y82565D01*
X255828Y82079D01*
X255426Y81556D01*
X255072Y80999D01*
X254767Y80414D01*
X254514Y79805D01*
X254316Y79176D01*
X254173Y78532D01*
X254087Y77878D01*
X254058Y77218D01*
X254087Y76559D01*
X254173Y75905D01*
X254316Y75261D01*
X254514Y74632D01*
X254767Y74023D01*
X255072Y73438D01*
X255426Y72881D01*
X255828Y72358D01*
X256273Y71872D01*
X256760Y71426D01*
X257283Y71024D01*
X257839Y70670D01*
X258424Y70365D01*
X259034Y70113D01*
X259663Y69915D01*
X260307Y69772D01*
X260961Y69686D01*
X261620Y69657D01*
X261620Y69657D01*
X287020Y69540D02*
X287684Y69569D01*
X288343Y69656D01*
X288992Y69800D01*
X289626Y70000D01*
X290240Y70254D01*
X290830Y70561D01*
X291391Y70918D01*
X291918Y71323D01*
X292408Y71772D01*
X292857Y72262D01*
X293262Y72789D01*
X293619Y73350D01*
X293926Y73940D01*
X294180Y74554D01*
X294380Y75188D01*
X294524Y75837D01*
X294611Y76496D01*
X294640Y77160D01*
X294611Y77824D01*
X294524Y78483D01*
X294380Y79132D01*
X294180Y79766D01*
X293926Y80380D01*
X293619Y80970D01*
X293262Y81531D01*
X292857Y82058D01*
X292408Y82548D01*
X291918Y82997D01*
X291391Y83402D01*
X290830Y83759D01*
X290240Y84066D01*
X289626Y84320D01*
X288992Y84520D01*
X288343Y84664D01*
X287684Y84751D01*
X287020Y84780D01*
X289560Y129540D02*
X259080Y129540D01*
X289560Y144780D02*
X259080Y144780D01*
X258416Y144751D01*
X257757Y144664D01*
X257108Y144520D01*
X256474Y144320D01*
X255860Y144066D01*
X255270Y143759D01*
X254709Y143402D01*
X254182Y142997D01*
X253692Y142548D01*
X253243Y142058D01*
X252838Y141531D01*
X252481Y140970D01*
X252174Y140380D01*
X251920Y139766D01*
X251720Y139132D01*
X251576Y138483D01*
X251489Y137824D01*
X251460Y137160D01*
X251489Y136496D01*
X251576Y135837D01*
X251720Y135188D01*
X251920Y134554D01*
X252174Y133940D01*
X252481Y133350D01*
X252838Y132789D01*
X253243Y132262D01*
X253692Y131772D01*
X254182Y131323D01*
X254709Y130918D01*
X255270Y130561D01*
X255860Y130254D01*
X256474Y130000D01*
X257108Y129800D01*
X257757Y129656D01*
X258416Y129569D01*
X259080Y129540D01*
X259080Y129540D01*
X289560Y129540D02*
X290224Y129569D01*
X290883Y129656D01*
X291532Y129800D01*
X292166Y130000D01*
X292780Y130254D01*
X293370Y130561D01*
X293931Y130918D01*
X294458Y131323D01*
X294948Y131772D01*
X295397Y132262D01*
X295802Y132789D01*
X296159Y133350D01*
X296466Y133940D01*
X296720Y134554D01*
X296920Y135188D01*
X297064Y135837D01*
X297151Y136496D01*
X297180Y137160D01*
X297151Y137824D01*
X297064Y138483D01*
X296920Y139132D01*
X296720Y139766D01*
X296466Y140380D01*
X296159Y140970D01*
X295802Y141531D01*
X295397Y142058D01*
X294948Y142548D01*
X294458Y142997D01*
X293931Y143402D01*
X293370Y143759D01*
X292780Y144066D01*
X292166Y144320D01*
X291532Y144520D01*
X290883Y144664D01*
X290224Y144751D01*
X289560Y144780D01*
G54D12*
X182880Y309880D02*
X182880Y238760D01*
G54D13*
X-2540Y-2540D02*
X-2540Y33968D01*
X-2540Y-2540D02*
X33968Y-2540D01*
X362540Y-2540D02*
X326032Y-2540D01*
X362540Y-2540D02*
X362540Y33968D01*
X362540Y362540D02*
X362540Y326032D01*
X362540Y362540D02*
X326032Y362540D01*
X-2540Y362540D02*
X33968Y362540D01*
X-2540Y362540D02*
X-2540Y326032D01*
X-52540Y-2540D02*
X-152540Y-2540D01*
X-102540Y-52540D02*
X-102540Y47460D01*
X-140040Y-2540D02*
G75*
D01*
G02X-140040Y-2540I37500J0*
G01*
X412540Y-2540D02*
X512540Y-2540D01*
X462540Y-52540D02*
X462540Y47460D01*
X425040Y-2540D02*
G75*
D01*
G02X425040Y-2540I37500J0*
G01*
X450040Y-2540D02*
G75*
D01*
G02X450040Y-2540I12500J0*
G01*
X-52540Y362540D02*
X-152540Y362540D01*
X-102540Y312540D02*
X-102540Y412540D01*
X-140040Y362540D02*
G75*
D01*
G02X-140040Y362540I37500J0*
G01*
X-127540Y362540D02*
G75*
D01*
G02X-127540Y362540I25000J0*
G01*
X-115040Y362540D02*
G75*
D01*
G02X-115040Y362540I12500J0*
G01*
G54D14*
X182880Y238760D03*
X182880Y309880D03*
X60960Y91440D03*
X60960Y193040D03*
X172720Y193040D03*
X172720Y91440D03*
X208280Y91440D03*
X142240Y193040D03*
X91440Y193040D03*
X320040Y294640D03*
X320040Y345440D03*
X81280Y345440D03*
X132080Y345440D03*
X248920Y172720D03*
X223520Y172720D03*
X274320Y172720D03*
X132080Y284480D03*
X106680Y284480D03*
X81280Y284480D03*
X81280Y309880D03*
X132080Y309880D03*
X106680Y309880D03*
X157480Y309880D03*
G54D15*
X40640Y35560D03*
X193040Y35560D03*
G54D16*
X35140Y30060D02*
X46140Y30060D01*
X46140Y41060D01*
X35140Y41060D01*
X35140Y30060D01*D02*
X187540Y30060D02*
X198540Y30060D01*
X198540Y41060D01*
X187540Y41060D01*
X187540Y30060D01*D02*
X203780Y137740D02*
X212780Y137740D01*
X212780Y146740D01*
X203780Y146740D01*
X203780Y137740D01*D02*
X315040Y264240D02*
X325040Y264240D01*
X325040Y274240D01*
X315040Y274240D01*
X315040Y264240D01*D02*
X152980Y279980D02*
X161980Y279980D01*
X161980Y288980D01*
X152980Y288980D01*
X152980Y279980D01*D02*
G54D17*
X91440Y35560D03*
X142240Y35560D03*
G54D18*
X208280Y142240D03*
X157480Y284480D03*
G54D19*
X320040Y269240D03*
G54D20*
X320040Y167640D03*

M02*
