G04 Generated by Ultiboard 14.1 *
%FSLAX34Y34*%
%MOMM*%

%ADD10C,0.0001*%
%ADD11C,0.0010*%
%ADD12C,0.1270*%


G04 ColorRGB 00FFFF for the following layer *
%LNLeiterplattenumriss*%
%LPD*%
G54D10*
G54D11*
X0Y0D02*
X360000Y0D01*
X360000Y360000D01*
X0Y360000D01*
X0Y0D01*
G54D12*
X-2540Y-2540D02*
X-2540Y33968D01*
X-2540Y-2540D02*
X33968Y-2540D01*
X362540Y-2540D02*
X326032Y-2540D01*
X362540Y-2540D02*
X362540Y33968D01*
X362540Y362540D02*
X362540Y326032D01*
X362540Y362540D02*
X326032Y362540D01*
X-2540Y362540D02*
X33968Y362540D01*
X-2540Y362540D02*
X-2540Y326032D01*
X-52540Y-2540D02*
X-152540Y-2540D01*
X-102540Y-52540D02*
X-102540Y47460D01*
X-140040Y-2540D02*
G75*
D01*
G02X-140040Y-2540I37500J0*
G01*
X412540Y-2540D02*
X512540Y-2540D01*
X462540Y-52540D02*
X462540Y47460D01*
X425040Y-2540D02*
G75*
D01*
G02X425040Y-2540I37500J0*
G01*
X450040Y-2540D02*
G75*
D01*
G02X450040Y-2540I12500J0*
G01*
X-52540Y362540D02*
X-152540Y362540D01*
X-102540Y312540D02*
X-102540Y412540D01*
X-140040Y362540D02*
G75*
D01*
G02X-140040Y362540I37500J0*
G01*
X-127540Y362540D02*
G75*
D01*
G02X-127540Y362540I25000J0*
G01*
X-115040Y362540D02*
G75*
D01*
G02X-115040Y362540I12500J0*
G01*

M02*
