G04 Generated by Ultiboard 14.1 *
%FSLAX34Y34*%
%MOMM*%

%ADD10C,0.0001*%
%ADD11C,0.2540*%
%ADD12C,0.7500*%
%ADD13C,0.5000*%
%ADD14C,0.1270*%
%ADD15C,1.9000*%
%ADD16R,1.1000X1.1000*%
%ADD17C,1.0000*%
%ADD18C,2.1000*%
%ADD19R,0.9000X0.9000*%
%ADD20R,0.6000X1.5500*%
%ADD21R,1.0000X1.0000*%
%ADD22C,2.0000*%


G04 ColorRGB 0000FF for the following layer *
%LNCopper Bottom*%
%LPD*%
G54D10*
G36*
X239856Y184382D02*
X239856Y184382D01*
X239856Y285806D01*
X234705Y290958D01*
X199446Y326216D01*
X161234Y326216D01*
X159526Y324508D01*
G74*
D01*
G02X170018Y317688I2046J14628*
G01*
X170018Y317688D01*
X170342Y317688D01*
G75*
D01*
G02X170342Y302072I12538J-7808*
G01*
X170342Y302072D01*
X170018Y302072D01*
G74*
D01*
G02X166558Y298229I12538J7808*
G01*
G74*
D01*
G02X172272Y289735I4578J9249*
G01*
X172272Y289735D01*
X162735Y289735D01*
X162735Y296077D01*
G75*
D01*
G02X152225Y296077I-5255J13803*
G01*
X152225Y296077D01*
X152225Y289735D01*
X145883Y289735D01*
G75*
D01*
G02X145883Y279225I-13803J-5255*
G01*
X145883Y279225D01*
X152225Y279225D01*
X152225Y269688D01*
G74*
D01*
G02X143731Y275402I755J10292*
G01*
G75*
D01*
G02X119380Y276939I-11651J9078*
G01*
G74*
D01*
G02X107086Y269716I12700J7541*
G01*
X107086Y269716D01*
X116003Y260798D01*
G74*
D01*
G02X118298Y255270I5513J5528*
G01*
X118298Y255270D01*
X118298Y210619D01*
X151959Y244281D01*
G75*
D01*
G02X157490Y246568I5521J-5521*
G01*
X157490Y246568D01*
X170342Y246568D01*
G75*
D01*
G02X170342Y230952I12538J-7808*
G01*
X170342Y230952D01*
X160714Y230952D01*
X136344Y206582D01*
G75*
D01*
G02X148302Y206509I5896J-13542*
G01*
X148302Y206509D01*
X142240Y200447D01*
X136224Y206463D01*
X130998Y201236D01*
X130998Y196875D01*
X134833Y193040D01*
X130998Y189205D01*
X130998Y161616D01*
G75*
D01*
G02X132890Y161965I1892J-4946*
G01*
X132890Y161965D01*
X132948Y161965D01*
X132948Y151862D01*
X131485Y151862D01*
X131485Y145978D01*
X132948Y145978D01*
X132948Y135875D01*
X132890Y135875D01*
G75*
D01*
G02X129540Y137069I0J5295*
G01*
G74*
D01*
G02X126190Y135875I3350J4101*
G01*
X126190Y135875D01*
X120190Y135875D01*
G75*
D01*
G02X116840Y137069I0J5295*
G01*
G74*
D01*
G02X113490Y135875I3350J4101*
G01*
X113490Y135875D01*
X107490Y135875D01*
G75*
D01*
G02X104140Y137069I0J5295*
G01*
G74*
D01*
G02X100790Y135875I3350J4101*
G01*
X100790Y135875D01*
X96147Y135875D01*
X116003Y116018D01*
G74*
D01*
G02X116840Y115033I5513J5528*
G01*
G74*
D01*
G02X117669Y116011I6350J4543*
G01*
X117669Y116011D01*
X138832Y137173D01*
X138832Y145978D01*
X144185Y145978D01*
X144185Y142527D01*
X164912Y163254D01*
X164912Y180502D01*
G75*
D01*
G02X180528Y180502I7808J12538*
G01*
X180528Y180502D01*
X180528Y160020D01*
G75*
D01*
G02X178233Y154492I-7808J0*
G01*
X178233Y154492D01*
X131529Y107788D01*
G75*
D01*
G02X132890Y107965I1361J-5118*
G01*
X132890Y107965D01*
X138890Y107965D01*
G74*
D01*
G02X144185Y102670I0J5295*
G01*
X144185Y102670D01*
X144185Y99248D01*
X160182Y99248D01*
G75*
D01*
G02X187106Y88095I12538J-7808*
G01*
X187106Y88095D01*
X198553Y76648D01*
G74*
D01*
G02X200848Y71120I5513J5528*
G01*
X200848Y71120D01*
X200848Y51118D01*
G74*
D01*
G02X208860Y41060I2308J10058*
G01*
X208860Y41060D01*
X208860Y30060D01*
G75*
D01*
G02X198540Y19740I-10320J0*
G01*
X198540Y19740D01*
X187540Y19740D01*
G75*
D01*
G02X177220Y30060I0J10320*
G01*
X177220Y30060D01*
X177220Y41060D01*
G74*
D01*
G02X185232Y51118I10320J0*
G01*
X185232Y51118D01*
X185232Y67886D01*
X176065Y77054D01*
G75*
D01*
G02X160182Y83632I-3345J14386*
G01*
X160182Y83632D01*
X142831Y83632D01*
G74*
D01*
G02X138890Y81875I3941J3538*
G01*
X138890Y81875D01*
X132890Y81875D01*
G75*
D01*
G02X130998Y82224I0J5295*
G01*
X130998Y82224D01*
X130998Y57844D01*
X138072Y50769D01*
G75*
D01*
G02X127031Y39728I4168J-15209*
G01*
X127031Y39728D01*
X117669Y49089D01*
G74*
D01*
G02X116840Y50067I5521J5521*
G01*
G74*
D01*
G02X116003Y49082I6350J4543*
G01*
X116003Y49082D01*
X106649Y39728D01*
G75*
D01*
G02X95608Y50769I-15209J-4168*
G01*
X95608Y50769D01*
X102682Y57844D01*
X102682Y82224D01*
G74*
D01*
G02X100790Y81875I1892J4946*
G01*
X100790Y81875D01*
X94790Y81875D01*
G75*
D01*
G02X90849Y83632I0J5295*
G01*
X90849Y83632D01*
X73498Y83632D01*
G75*
D01*
G02X57615Y77054I-12538J7808*
G01*
X57615Y77054D01*
X48448Y67886D01*
X48448Y51118D01*
G74*
D01*
G02X56460Y41060I2308J10058*
G01*
X56460Y41060D01*
X56460Y30060D01*
G75*
D01*
G02X46140Y19740I-10320J0*
G01*
X46140Y19740D01*
X35140Y19740D01*
G75*
D01*
G02X24820Y30060I0J10320*
G01*
X24820Y30060D01*
X24820Y41060D01*
G74*
D01*
G02X32832Y51118I10320J0*
G01*
X32832Y51118D01*
X32832Y71107D01*
G75*
D01*
G02X35119Y76641I7808J13*
G01*
X35119Y76641D01*
X46574Y88095D01*
G75*
D01*
G02X73498Y99248I14386J3345*
G01*
X73498Y99248D01*
X89495Y99248D01*
X89495Y102670D01*
G75*
D01*
G02X94790Y107965I5295J0*
G01*
X94790Y107965D01*
X100790Y107965D01*
G74*
D01*
G02X102151Y107788I0J5295*
G01*
X102151Y107788D01*
X55439Y154499D01*
G75*
D01*
G02X53152Y160033I5521J5521*
G01*
X53152Y160033D01*
X53152Y180502D01*
G75*
D01*
G02X64215Y207447I7808J12538*
G01*
X64215Y207447D01*
X52011Y219651D01*
G75*
D01*
G02X49356Y226075I6409J6409*
G01*
X49356Y226075D01*
X49356Y287007D01*
G75*
D01*
G02X52011Y293429I9064J13*
G01*
X52011Y293429D01*
X66625Y308043D01*
G75*
D01*
G02X72216Y321542I14655J1837*
G01*
X72216Y321542D01*
X72216Y333778D01*
G75*
D01*
G02X69777Y354705I9064J11662*
G01*
X69777Y354705D01*
X5295Y354705D01*
X5295Y5295D01*
X354705Y5295D01*
X354705Y354705D01*
X331543Y354705D01*
G74*
D01*
G02X333850Y350678I11503J9265*
G01*
X333850Y350678D01*
X325278Y350678D01*
X325278Y354705D01*
X314802Y354705D01*
X314802Y350678D01*
X306230Y350678D01*
G74*
D01*
G02X308537Y354705I13810J5238*
G01*
X308537Y354705D01*
X143583Y354705D01*
G74*
D01*
G02X145890Y350678I11503J9265*
G01*
X145890Y350678D01*
X137318Y350678D01*
X137318Y354705D01*
X126842Y354705D01*
X126842Y350678D01*
X118270Y350678D01*
G74*
D01*
G02X120577Y354705I13810J5238*
G01*
X120577Y354705D01*
X92783Y354705D01*
G75*
D01*
G02X90344Y333778I-11503J-9265*
G01*
X90344Y333778D01*
X90344Y321542D01*
G74*
D01*
G02X92942Y318944I9064J11662*
G01*
X92942Y318944D01*
X95018Y318944D01*
G75*
D01*
G02X118342Y318944I11662J-9064*
G01*
X118342Y318944D01*
X120418Y318944D01*
G75*
D01*
G02X133917Y324535I11662J-9064*
G01*
X133917Y324535D01*
X151071Y341689D01*
G75*
D01*
G02X157490Y344344I6409J-6409*
G01*
X157490Y344344D01*
X203200Y344344D01*
G74*
D01*
G02X209617Y341681I0J9064*
G01*
X209617Y341681D01*
X234705Y316593D01*
X255321Y295977D01*
G74*
D01*
G02X257984Y289560I6401J6417*
G01*
X257984Y289560D01*
X257984Y184382D01*
G74*
D01*
G02X261620Y180261I9064J11662*
G01*
G74*
D01*
G02X265256Y184382I12700J7541*
G01*
X265256Y184382D01*
X265256Y223503D01*
G75*
D01*
G02X267911Y229929I9064J17*
G01*
X267911Y229929D01*
X304720Y266738D01*
X304720Y274240D01*
G74*
D01*
G02X310394Y283455I10320J0*
G01*
G75*
D01*
G02X329686Y283455I9646J11185*
G01*
G74*
D01*
G02X335360Y274240I4646J9215*
G01*
X335360Y274240D01*
X335360Y264240D01*
G75*
D01*
G02X325040Y253920I-10320J0*
G01*
X325040Y253920D01*
X317538Y253920D01*
X298322Y234705D01*
X283384Y219766D01*
X283384Y184382D01*
G75*
D01*
G02X261620Y165179I-9064J-11662*
G01*
G75*
D01*
G02X247083Y158065I-12700J7541*
G01*
X247083Y158065D01*
X234705Y145687D01*
X234705Y145687D01*
X224857Y135839D01*
G74*
D01*
G02X222439Y134106I6417J6401*
G01*
G74*
D01*
G02X212780Y127420I9659J3634*
G01*
X212780Y127420D01*
X203780Y127420D01*
G75*
D01*
G02X193460Y137740I0J10320*
G01*
X193460Y137740D01*
X193460Y146740D01*
G75*
D01*
G02X203780Y157060I10320J0*
G01*
X203780Y157060D01*
X212780Y157060D01*
G74*
D01*
G02X218626Y155244I0J10320*
G01*
X218626Y155244D01*
X221474Y158092D01*
G74*
D01*
G02X217458Y159251I2046J14628*
G01*
X217458Y159251D01*
X223520Y165313D01*
X226108Y162725D01*
X233515Y170132D01*
X230927Y172720D01*
X234619Y176412D01*
G74*
D01*
G02X239856Y184382I14301J3692*
G01*
D02*
G37*
%LPC*%
G36*
X127080Y345440D02*
G75*
D01*
G02X127080Y345440I5000J0*
G01*
D02*
G37*
G36*
X145890Y340202D02*
G74*
D01*
G02X137318Y331630I13810J5238*
G01*
X137318Y331630D01*
X137318Y340202D01*
X145890Y340202D01*
D02*
G37*
G36*
X126842Y331630D02*
G74*
D01*
G02X118270Y340202I5238J13810*
G01*
X118270Y340202D01*
X126842Y340202D01*
X126842Y331630D01*
D02*
G37*
G36*
X152480Y284480D02*
G75*
D01*
G02X152480Y284480I5000J0*
G01*
D02*
G37*
G36*
X162735Y269688D02*
X162735Y269688D01*
X162735Y279225D01*
X172272Y279225D01*
G74*
D01*
G02X162735Y269688I10292J755*
G01*
D02*
G37*
G36*
X315040Y345440D02*
G75*
D01*
G02X315040Y345440I5000J0*
G01*
D02*
G37*
G36*
X333850Y340202D02*
G74*
D01*
G02X325278Y331630I13810J5238*
G01*
X325278Y331630D01*
X325278Y340202D01*
X333850Y340202D01*
D02*
G37*
G36*
X314802Y331630D02*
G74*
D01*
G02X306230Y340202I5238J13810*
G01*
X306230Y340202D01*
X314802Y340202D01*
X314802Y331630D01*
D02*
G37*
G36*
X317759Y152541D02*
X317759Y152541D01*
X305843Y140625D01*
G75*
D01*
G02X290758Y120556I-16283J-3465*
G01*
G74*
D01*
G02X289560Y120476I1198J8984*
G01*
X289560Y120476D01*
X259080Y120476D01*
G75*
D01*
G02X257882Y120556I0J9064*
G01*
G75*
D01*
G02X257882Y153764I1198J16604*
G01*
G75*
D01*
G02X259080Y153844I1198J-8984*
G01*
X259080Y153844D01*
X289560Y153844D01*
G74*
D01*
G02X290758Y153764I0J9064*
G01*
G74*
D01*
G02X293025Y153443I1198J16604*
G01*
X293025Y153443D01*
X304941Y165359D01*
G75*
D01*
G02X317759Y152541I15099J2281*
G01*
D02*
G37*
G36*
X246145Y71244D02*
X246145Y71244D01*
X268433Y71244D01*
X268433Y60476D01*
X261620Y60476D01*
G75*
D01*
G02X259186Y60809I0J9064*
G01*
G74*
D01*
G02X246145Y71244I2434J16409*
G01*
D02*
G37*
G36*
X289339Y77160D02*
G75*
D01*
G02X285320Y73141I-4019J0*
G01*
X285320Y73141D01*
X263320Y73141D01*
G75*
D01*
G02X259301Y77160I0J4019*
G01*
G75*
D01*
G02X263320Y81179I4019J0*
G01*
X263320Y81179D01*
X285320Y81179D01*
G74*
D01*
G02X289339Y77160I0J4019*
G01*
D02*
G37*
G36*
X287020Y60476D02*
X287020Y60476D01*
X280265Y60476D01*
X280265Y71244D01*
X302581Y71244D01*
G74*
D01*
G02X288218Y60556I15561J5916*
G01*
G74*
D01*
G02X287020Y60476I1198J8984*
G01*
D02*
G37*
G36*
X305636Y94460D02*
X305636Y94460D01*
X305636Y101215D01*
X316404Y101215D01*
X316404Y78899D01*
G74*
D01*
G02X305716Y93262I5916J15561*
G01*
G75*
D01*
G02X305636Y94460I8984J1198*
G01*
D02*
G37*
G36*
X328236Y78899D02*
X328236Y78899D01*
X328236Y101215D01*
X339004Y101215D01*
X339004Y94460D01*
G75*
D01*
G02X338924Y93262I-9064J0*
G01*
G74*
D01*
G02X328236Y78899I16604J1198*
G01*
D02*
G37*
G36*
X246100Y83076D02*
G74*
D01*
G02X260418Y93764I15520J5858*
G01*
G75*
D01*
G02X261620Y93844I1202J-8984*
G01*
X261620Y93844D01*
X268433Y93844D01*
X268433Y83076D01*
X246100Y83076D01*
D02*
G37*
G36*
X302581Y83076D02*
X302581Y83076D01*
X280265Y83076D01*
X280265Y93844D01*
X287020Y93844D01*
G74*
D01*
G02X288218Y93764I0J9064*
G01*
G74*
D01*
G02X302581Y83076I1198J16604*
G01*
D02*
G37*
G36*
X322320Y92141D02*
G75*
D01*
G02X318301Y96160I0J4019*
G01*
X318301Y96160D01*
X318301Y118160D01*
G75*
D01*
G02X322320Y122179I4019J0*
G01*
G74*
D01*
G02X326339Y118160I0J4019*
G01*
X326339Y118160D01*
X326339Y96160D01*
G75*
D01*
G02X322320Y92141I-4019J0*
G01*
D02*
G37*
G36*
X316404Y135335D02*
X316404Y135335D01*
X316404Y113047D01*
X305636Y113047D01*
X305636Y119860D01*
G74*
D01*
G02X305969Y122294I9064J0*
G01*
G74*
D01*
G02X316404Y135335I16409J2434*
G01*
D02*
G37*
G36*
X328236Y135380D02*
G74*
D01*
G02X338924Y121062I5858J15520*
G01*
G74*
D01*
G02X339004Y119860I8984J1202*
G01*
X339004Y119860D01*
X339004Y113047D01*
X328236Y113047D01*
X328236Y135380D01*
D02*
G37*
G36*
X194811Y97502D02*
X194811Y97502D01*
X200873Y91440D01*
X194811Y85378D01*
G75*
D01*
G02X194811Y97502I13469J6062*
G01*
D02*
G37*
G36*
X138890Y161965D02*
G74*
D01*
G02X144185Y156670I0J5295*
G01*
X144185Y156670D01*
X144185Y151862D01*
X138832Y151862D01*
X138832Y161965D01*
X138890Y161965D01*
D02*
G37*
G36*
X137240Y193040D02*
G75*
D01*
G02X137240Y193040I5000J0*
G01*
D02*
G37*
G36*
X155709Y199102D02*
G75*
D01*
G02X155709Y186978I-13469J-6062*
G01*
X155709Y186978D01*
X149647Y193040D01*
X155709Y199102D01*
D02*
G37*
G36*
X217458Y186189D02*
G75*
D01*
G02X229582Y186189I6062J-13469*
G01*
X229582Y186189D01*
X223520Y180127D01*
X217458Y186189D01*
D02*
G37*
G36*
X148302Y179571D02*
G75*
D01*
G02X136178Y179571I-6062J13469*
G01*
X136178Y179571D01*
X142240Y185633D01*
X148302Y179571D01*
D02*
G37*
G36*
X218520Y172720D02*
G75*
D01*
G02X218520Y172720I5000J0*
G01*
D02*
G37*
G36*
X210051Y178782D02*
X210051Y178782D01*
X216113Y172720D01*
X210051Y166658D01*
G75*
D01*
G02X210051Y178782I13469J6062*
G01*
D02*
G37*
G36*
X203280Y91440D02*
G75*
D01*
G02X203280Y91440I5000J0*
G01*
D02*
G37*
G36*
X202218Y104909D02*
G75*
D01*
G02X214342Y104909I6062J-13469*
G01*
X214342Y104909D01*
X208280Y98847D01*
X202218Y104909D01*
D02*
G37*
G36*
X221749Y97502D02*
G75*
D01*
G02X221749Y85378I-13469J-6062*
G01*
X221749Y85378D01*
X215687Y91440D01*
X221749Y97502D01*
D02*
G37*
G36*
X214342Y77971D02*
G75*
D01*
G02X202218Y77971I-6062J13469*
G01*
X202218Y77971D01*
X208280Y84033D01*
X214342Y77971D01*
D02*
G37*
%LPD*%
G54D11*
X127080Y345440D02*
G75*
D01*
G02X127080Y345440I5000J0*
G01*
X145890Y340202D02*
G74*
D01*
G02X137318Y331630I13810J5238*
G01*
X137318Y340202D01*
X145890Y340202D01*
X126842Y331630D02*
G74*
D01*
G02X118270Y340202I5238J13810*
G01*
X126842Y340202D01*
X126842Y331630D01*
X152480Y284480D02*
G75*
D01*
G02X152480Y284480I5000J0*
G01*
X162735Y269688D02*
X162735Y279225D01*
X172272Y279225D01*
G74*
D01*
G02X162735Y269688I10292J755*
G01*
X315040Y345440D02*
G75*
D01*
G02X315040Y345440I5000J0*
G01*
X333850Y340202D02*
G74*
D01*
G02X325278Y331630I13810J5238*
G01*
X325278Y340202D01*
X333850Y340202D01*
X314802Y331630D02*
G74*
D01*
G02X306230Y340202I5238J13810*
G01*
X314802Y340202D01*
X314802Y331630D01*
X317759Y152541D02*
X305843Y140625D01*
G75*
D01*
G02X290758Y120556I-16283J-3465*
G01*
G74*
D01*
G02X289560Y120476I1198J8984*
G01*
X259080Y120476D01*
G75*
D01*
G02X257882Y120556I0J9064*
G01*
G75*
D01*
G02X257882Y153764I1198J16604*
G01*
G75*
D01*
G02X259080Y153844I1198J-8984*
G01*
X289560Y153844D01*
G74*
D01*
G02X290758Y153764I0J9064*
G01*
G74*
D01*
G02X293025Y153443I1198J16604*
G01*
X304941Y165359D01*
G75*
D01*
G02X317759Y152541I15099J2281*
G01*
X246145Y71244D02*
X268433Y71244D01*
X268433Y60476D01*
X261620Y60476D01*
G75*
D01*
G02X259186Y60809I0J9064*
G01*
G74*
D01*
G02X246145Y71244I2434J16409*
G01*
X289339Y77160D02*
G75*
D01*
G02X285320Y73141I-4019J0*
G01*
X263320Y73141D01*
G75*
D01*
G02X259301Y77160I0J4019*
G01*
G75*
D01*
G02X263320Y81179I4019J0*
G01*
X285320Y81179D01*
G74*
D01*
G02X289339Y77160I0J4019*
G01*
X287020Y60476D02*
X280265Y60476D01*
X280265Y71244D01*
X302581Y71244D01*
G74*
D01*
G02X288218Y60556I15561J5916*
G01*
G74*
D01*
G02X287020Y60476I1198J8984*
G01*
X305636Y94460D02*
X305636Y101215D01*
X316404Y101215D01*
X316404Y78899D01*
G74*
D01*
G02X305716Y93262I5916J15561*
G01*
G75*
D01*
G02X305636Y94460I8984J1198*
G01*
X328236Y78899D02*
X328236Y101215D01*
X339004Y101215D01*
X339004Y94460D01*
G75*
D01*
G02X338924Y93262I-9064J0*
G01*
G74*
D01*
G02X328236Y78899I16604J1198*
G01*
X246100Y83076D02*
G74*
D01*
G02X260418Y93764I15520J5858*
G01*
G75*
D01*
G02X261620Y93844I1202J-8984*
G01*
X268433Y93844D01*
X268433Y83076D01*
X246100Y83076D01*
X302581Y83076D02*
X280265Y83076D01*
X280265Y93844D01*
X287020Y93844D01*
G74*
D01*
G02X288218Y93764I0J9064*
G01*
G74*
D01*
G02X302581Y83076I1198J16604*
G01*
X322320Y92141D02*
G75*
D01*
G02X318301Y96160I0J4019*
G01*
X318301Y118160D01*
G75*
D01*
G02X322320Y122179I4019J0*
G01*
G74*
D01*
G02X326339Y118160I0J4019*
G01*
X326339Y96160D01*
G75*
D01*
G02X322320Y92141I-4019J0*
G01*
X316404Y135335D02*
X316404Y113047D01*
X305636Y113047D01*
X305636Y119860D01*
G74*
D01*
G02X305969Y122294I9064J0*
G01*
G74*
D01*
G02X316404Y135335I16409J2434*
G01*
X328236Y135380D02*
G74*
D01*
G02X338924Y121062I5858J15520*
G01*
G74*
D01*
G02X339004Y119860I8984J1202*
G01*
X339004Y113047D01*
X328236Y113047D01*
X328236Y135380D01*
X194811Y97502D02*
X200873Y91440D01*
X194811Y85378D01*
G75*
D01*
G02X194811Y97502I13469J6062*
G01*
X138890Y161965D02*
G74*
D01*
G02X144185Y156670I0J5295*
G01*
X144185Y151862D01*
X138832Y151862D01*
X138832Y161965D01*
X138890Y161965D01*
X137240Y193040D02*
G75*
D01*
G02X137240Y193040I5000J0*
G01*
X155709Y199102D02*
G75*
D01*
G02X155709Y186978I-13469J-6062*
G01*
X149647Y193040D01*
X155709Y199102D01*
X217458Y186189D02*
G75*
D01*
G02X229582Y186189I6062J-13469*
G01*
X223520Y180127D01*
X217458Y186189D01*
X148302Y179571D02*
G75*
D01*
G02X136178Y179571I-6062J13469*
G01*
X142240Y185633D01*
X148302Y179571D01*
X218520Y172720D02*
G75*
D01*
G02X218520Y172720I5000J0*
G01*
X210051Y178782D02*
X216113Y172720D01*
X210051Y166658D01*
G75*
D01*
G02X210051Y178782I13469J6062*
G01*
X203280Y91440D02*
G75*
D01*
G02X203280Y91440I5000J0*
G01*
X202218Y104909D02*
G75*
D01*
G02X214342Y104909I6062J-13469*
G01*
X208280Y98847D01*
X202218Y104909D01*
X221749Y97502D02*
G75*
D01*
G02X221749Y85378I-13469J-6062*
G01*
X215687Y91440D01*
X221749Y97502D01*
X214342Y77971D02*
G75*
D01*
G02X202218Y77971I-6062J13469*
G01*
X208280Y84033D01*
X214342Y77971D01*
X239856Y184382D02*
X239856Y285806D01*
X234705Y290958D01*
X199446Y326216D01*
X161234Y326216D01*
X159526Y324508D01*
G74*
D01*
G02X170018Y317688I2046J14628*
G01*
X170342Y317688D01*
G75*
D01*
G02X170342Y302072I12538J-7808*
G01*
X170018Y302072D01*
G74*
D01*
G02X166558Y298229I12538J7808*
G01*
G74*
D01*
G02X172272Y289735I4578J9249*
G01*
X162735Y289735D01*
X162735Y296077D01*
G75*
D01*
G02X152225Y296077I-5255J13803*
G01*
X152225Y289735D01*
X145883Y289735D01*
G75*
D01*
G02X145883Y279225I-13803J-5255*
G01*
X152225Y279225D01*
X152225Y269688D01*
G74*
D01*
G02X143731Y275402I755J10292*
G01*
G75*
D01*
G02X119380Y276939I-11651J9078*
G01*
G74*
D01*
G02X107086Y269716I12700J7541*
G01*
X116003Y260798D01*
G74*
D01*
G02X118298Y255270I5513J5528*
G01*
X118298Y210619D01*
X151959Y244281D01*
G75*
D01*
G02X157490Y246568I5521J-5521*
G01*
X170342Y246568D01*
G75*
D01*
G02X170342Y230952I12538J-7808*
G01*
X160714Y230952D01*
X136344Y206582D01*
G75*
D01*
G02X148302Y206509I5896J-13542*
G01*
X142240Y200447D01*
X136224Y206463D01*
X130998Y201236D01*
X130998Y196875D01*
X134833Y193040D01*
X130998Y189205D01*
X130998Y161616D01*
G75*
D01*
G02X132890Y161965I1892J-4946*
G01*
X132948Y161965D01*
X132948Y151862D01*
X131485Y151862D01*
X131485Y145978D01*
X132948Y145978D01*
X132948Y135875D01*
X132890Y135875D01*
G75*
D01*
G02X129540Y137069I0J5295*
G01*
G74*
D01*
G02X126190Y135875I3350J4101*
G01*
X120190Y135875D01*
G75*
D01*
G02X116840Y137069I0J5295*
G01*
G74*
D01*
G02X113490Y135875I3350J4101*
G01*
X107490Y135875D01*
G75*
D01*
G02X104140Y137069I0J5295*
G01*
G74*
D01*
G02X100790Y135875I3350J4101*
G01*
X96147Y135875D01*
X116003Y116018D01*
G74*
D01*
G02X116840Y115033I5513J5528*
G01*
G74*
D01*
G02X117669Y116011I6350J4543*
G01*
X138832Y137173D01*
X138832Y145978D01*
X144185Y145978D01*
X144185Y142527D01*
X164912Y163254D01*
X164912Y180502D01*
G75*
D01*
G02X180528Y180502I7808J12538*
G01*
X180528Y160020D01*
G75*
D01*
G02X178233Y154492I-7808J0*
G01*
X131529Y107788D01*
G75*
D01*
G02X132890Y107965I1361J-5118*
G01*
X138890Y107965D01*
G74*
D01*
G02X144185Y102670I0J5295*
G01*
X144185Y99248D01*
X160182Y99248D01*
G75*
D01*
G02X187106Y88095I12538J-7808*
G01*
X198553Y76648D01*
G74*
D01*
G02X200848Y71120I5513J5528*
G01*
X200848Y51118D01*
G74*
D01*
G02X208860Y41060I2308J10058*
G01*
X208860Y30060D01*
G75*
D01*
G02X198540Y19740I-10320J0*
G01*
X187540Y19740D01*
G75*
D01*
G02X177220Y30060I0J10320*
G01*
X177220Y41060D01*
G74*
D01*
G02X185232Y51118I10320J0*
G01*
X185232Y67886D01*
X176065Y77054D01*
G75*
D01*
G02X160182Y83632I-3345J14386*
G01*
X142831Y83632D01*
G74*
D01*
G02X138890Y81875I3941J3538*
G01*
X132890Y81875D01*
G75*
D01*
G02X130998Y82224I0J5295*
G01*
X130998Y57844D01*
X138072Y50769D01*
G75*
D01*
G02X127031Y39728I4168J-15209*
G01*
X117669Y49089D01*
G74*
D01*
G02X116840Y50067I5521J5521*
G01*
G74*
D01*
G02X116003Y49082I6350J4543*
G01*
X106649Y39728D01*
G75*
D01*
G02X95608Y50769I-15209J-4168*
G01*
X102682Y57844D01*
X102682Y82224D01*
G74*
D01*
G02X100790Y81875I1892J4946*
G01*
X94790Y81875D01*
G75*
D01*
G02X90849Y83632I0J5295*
G01*
X73498Y83632D01*
G75*
D01*
G02X57615Y77054I-12538J7808*
G01*
X48448Y67886D01*
X48448Y51118D01*
G74*
D01*
G02X56460Y41060I2308J10058*
G01*
X56460Y30060D01*
G75*
D01*
G02X46140Y19740I-10320J0*
G01*
X35140Y19740D01*
G75*
D01*
G02X24820Y30060I0J10320*
G01*
X24820Y41060D01*
G74*
D01*
G02X32832Y51118I10320J0*
G01*
X32832Y71107D01*
G75*
D01*
G02X35119Y76641I7808J13*
G01*
X46574Y88095D01*
G75*
D01*
G02X73498Y99248I14386J3345*
G01*
X89495Y99248D01*
X89495Y102670D01*
G75*
D01*
G02X94790Y107965I5295J0*
G01*
X100790Y107965D01*
G74*
D01*
G02X102151Y107788I0J5295*
G01*
X55439Y154499D01*
G75*
D01*
G02X53152Y160033I5521J5521*
G01*
X53152Y180502D01*
G75*
D01*
G02X64215Y207447I7808J12538*
G01*
X52011Y219651D01*
G75*
D01*
G02X49356Y226075I6409J6409*
G01*
X49356Y287007D01*
G75*
D01*
G02X52011Y293429I9064J13*
G01*
X66625Y308043D01*
G75*
D01*
G02X72216Y321542I14655J1837*
G01*
X72216Y333778D01*
G75*
D01*
G02X69777Y354705I9064J11662*
G01*
X5295Y354705D01*
X5295Y5295D01*
X354705Y5295D01*
X354705Y354705D01*
X331543Y354705D01*
G74*
D01*
G02X333850Y350678I11503J9265*
G01*
X325278Y350678D01*
X325278Y354705D01*
X314802Y354705D01*
X314802Y350678D01*
X306230Y350678D01*
G74*
D01*
G02X308537Y354705I13810J5238*
G01*
X143583Y354705D01*
G74*
D01*
G02X145890Y350678I11503J9265*
G01*
X137318Y350678D01*
X137318Y354705D01*
X126842Y354705D01*
X126842Y350678D01*
X118270Y350678D01*
G74*
D01*
G02X120577Y354705I13810J5238*
G01*
X92783Y354705D01*
G75*
D01*
G02X90344Y333778I-11503J-9265*
G01*
X90344Y321542D01*
G74*
D01*
G02X92942Y318944I9064J11662*
G01*
X95018Y318944D01*
G75*
D01*
G02X118342Y318944I11662J-9064*
G01*
X120418Y318944D01*
G75*
D01*
G02X133917Y324535I11662J-9064*
G01*
X151071Y341689D01*
G75*
D01*
G02X157490Y344344I6409J-6409*
G01*
X203200Y344344D01*
G74*
D01*
G02X209617Y341681I0J9064*
G01*
X234705Y316593D01*
X255321Y295977D01*
G74*
D01*
G02X257984Y289560I6401J6417*
G01*
X257984Y184382D01*
G74*
D01*
G02X261620Y180261I9064J11662*
G01*
G74*
D01*
G02X265256Y184382I12700J7541*
G01*
X265256Y223503D01*
G75*
D01*
G02X267911Y229929I9064J17*
G01*
X304720Y266738D01*
X304720Y274240D01*
G74*
D01*
G02X310394Y283455I10320J0*
G01*
G75*
D01*
G02X329686Y283455I9646J11185*
G01*
G74*
D01*
G02X335360Y274240I4646J9215*
G01*
X335360Y264240D01*
G75*
D01*
G02X325040Y253920I-10320J0*
G01*
X317538Y253920D01*
X298322Y234705D01*
X283384Y219766D01*
X283384Y184382D01*
G75*
D01*
G02X261620Y165179I-9064J-11662*
G01*
G75*
D01*
G02X247083Y158065I-12700J7541*
G01*
X234705Y145687D01*
X234705Y145687D01*
X224857Y135839D01*
G74*
D01*
G02X222439Y134106I6417J6401*
G01*
G74*
D01*
G02X212780Y127420I9659J3634*
G01*
X203780Y127420D01*
G75*
D01*
G02X193460Y137740I0J10320*
G01*
X193460Y146740D01*
G75*
D01*
G02X203780Y157060I10320J0*
G01*
X212780Y157060D01*
G74*
D01*
G02X218626Y155244I0J10320*
G01*
X221474Y158092D01*
G74*
D01*
G02X217458Y159251I2046J14628*
G01*
X223520Y165313D01*
X226108Y162725D01*
X233515Y170132D01*
X230927Y172720D01*
X234619Y176412D01*
G74*
D01*
G02X239856Y184382I14301J3692*
G01*
G54D12*
X314700Y94460D02*
X314700Y119860D01*
X329940Y119860D02*
X329940Y94460D01*
X329940Y119860D02*
X329911Y120519D01*
X329825Y121173D01*
X329682Y121817D01*
X329484Y122446D01*
X329232Y123056D01*
X328927Y123641D01*
X328573Y124197D01*
X328171Y124720D01*
X327725Y125207D01*
X327239Y125652D01*
X326716Y126054D01*
X326159Y126408D01*
X325574Y126713D01*
X324965Y126966D01*
X324336Y127164D01*
X323692Y127307D01*
X323038Y127393D01*
X322378Y127422D01*
X321719Y127393D01*
X321065Y127307D01*
X320421Y127164D01*
X319792Y126966D01*
X319183Y126713D01*
X318598Y126408D01*
X318041Y126054D01*
X317518Y125652D01*
X317032Y125207D01*
X316586Y124720D01*
X316184Y124197D01*
X315830Y123641D01*
X315525Y123056D01*
X315273Y122446D01*
X315075Y121817D01*
X314932Y121173D01*
X314846Y120519D01*
X314817Y119860D01*
X314700Y94460D02*
X314729Y93796D01*
X314816Y93137D01*
X314960Y92488D01*
X315160Y91854D01*
X315414Y91240D01*
X315721Y90650D01*
X316078Y90089D01*
X316483Y89562D01*
X316932Y89072D01*
X317422Y88623D01*
X317949Y88218D01*
X318510Y87861D01*
X319100Y87554D01*
X319714Y87300D01*
X320348Y87100D01*
X320997Y86956D01*
X321656Y86869D01*
X322320Y86840D01*
X322984Y86869D01*
X323643Y86956D01*
X324292Y87100D01*
X324926Y87300D01*
X325540Y87554D01*
X326130Y87861D01*
X326691Y88218D01*
X327218Y88623D01*
X327708Y89072D01*
X328157Y89562D01*
X328562Y90089D01*
X328919Y90650D01*
X329226Y91240D01*
X329480Y91854D01*
X329680Y92488D01*
X329824Y93137D01*
X329911Y93796D01*
X329940Y94460D01*
X329940Y94460D01*
X287020Y69540D02*
X261620Y69540D01*
X261620Y84780D02*
X287020Y84780D01*
X261620Y84780D02*
X260961Y84751D01*
X260307Y84665D01*
X259663Y84522D01*
X259034Y84324D01*
X258424Y84072D01*
X257839Y83767D01*
X257283Y83413D01*
X256760Y83011D01*
X256273Y82565D01*
X255828Y82079D01*
X255426Y81556D01*
X255072Y80999D01*
X254767Y80414D01*
X254514Y79805D01*
X254316Y79176D01*
X254173Y78532D01*
X254087Y77878D01*
X254058Y77218D01*
X254087Y76559D01*
X254173Y75905D01*
X254316Y75261D01*
X254514Y74632D01*
X254767Y74023D01*
X255072Y73438D01*
X255426Y72881D01*
X255828Y72358D01*
X256273Y71872D01*
X256760Y71426D01*
X257283Y71024D01*
X257839Y70670D01*
X258424Y70365D01*
X259034Y70113D01*
X259663Y69915D01*
X260307Y69772D01*
X260961Y69686D01*
X261620Y69657D01*
X261620Y69657D01*
X287020Y69540D02*
X287684Y69569D01*
X288343Y69656D01*
X288992Y69800D01*
X289626Y70000D01*
X290240Y70254D01*
X290830Y70561D01*
X291391Y70918D01*
X291918Y71323D01*
X292408Y71772D01*
X292857Y72262D01*
X293262Y72789D01*
X293619Y73350D01*
X293926Y73940D01*
X294180Y74554D01*
X294380Y75188D01*
X294524Y75837D01*
X294611Y76496D01*
X294640Y77160D01*
X294611Y77824D01*
X294524Y78483D01*
X294380Y79132D01*
X294180Y79766D01*
X293926Y80380D01*
X293619Y80970D01*
X293262Y81531D01*
X292857Y82058D01*
X292408Y82548D01*
X291918Y82997D01*
X291391Y83402D01*
X290830Y83759D01*
X290240Y84066D01*
X289626Y84320D01*
X288992Y84520D01*
X288343Y84664D01*
X287684Y84751D01*
X287020Y84780D01*
X289560Y129540D02*
X259080Y129540D01*
X289560Y144780D02*
X259080Y144780D01*
X258416Y144751D01*
X257757Y144664D01*
X257108Y144520D01*
X256474Y144320D01*
X255860Y144066D01*
X255270Y143759D01*
X254709Y143402D01*
X254182Y142997D01*
X253692Y142548D01*
X253243Y142058D01*
X252838Y141531D01*
X252481Y140970D01*
X252174Y140380D01*
X251920Y139766D01*
X251720Y139132D01*
X251576Y138483D01*
X251489Y137824D01*
X251460Y137160D01*
X251489Y136496D01*
X251576Y135837D01*
X251720Y135188D01*
X251920Y134554D01*
X252174Y133940D01*
X252481Y133350D01*
X252838Y132789D01*
X253243Y132262D01*
X253692Y131772D01*
X254182Y131323D01*
X254709Y130918D01*
X255270Y130561D01*
X255860Y130254D01*
X256474Y130000D01*
X257108Y129800D01*
X257757Y129656D01*
X258416Y129569D01*
X259080Y129540D01*
X259080Y129540D01*
X289560Y129540D02*
X290224Y129569D01*
X290883Y129656D01*
X291532Y129800D01*
X292166Y130000D01*
X292780Y130254D01*
X293370Y130561D01*
X293931Y130918D01*
X294458Y131323D01*
X294948Y131772D01*
X295397Y132262D01*
X295802Y132789D01*
X296159Y133350D01*
X296466Y133940D01*
X296720Y134554D01*
X296920Y135188D01*
X297064Y135837D01*
X297151Y136496D01*
X297180Y137160D01*
X297151Y137824D01*
X297064Y138483D01*
X296920Y139132D01*
X296720Y139766D01*
X296466Y140380D01*
X296159Y140970D01*
X295802Y141531D01*
X295397Y142058D01*
X294948Y142548D01*
X294458Y142997D01*
X293931Y143402D01*
X293370Y143759D01*
X292780Y144066D01*
X292166Y144320D01*
X291532Y144520D01*
X290883Y144664D01*
X290224Y144751D01*
X289560Y144780D01*
X289560Y137160D02*
X274320Y137160D01*
X320040Y167640D02*
X289560Y137160D01*
X274320Y223520D02*
X274320Y172720D01*
X320040Y269240D02*
X274320Y223520D01*
X320040Y269240D02*
X320040Y294640D01*
X91440Y155270D02*
X91440Y193040D01*
X97790Y148920D02*
X91440Y155270D01*
X91440Y193040D02*
X58420Y226060D01*
X58420Y287020D01*
X81280Y309880D01*
X133350Y309880D01*
X81280Y345440D02*
X81280Y309880D01*
X132080Y309880D02*
X157480Y335280D01*
X203200Y335280D01*
X248920Y289560D01*
X248920Y172720D01*
X218440Y142240D02*
X248920Y172720D01*
X208280Y142240D02*
X218440Y142240D01*
G54D13*
X110490Y148920D02*
X110490Y255270D01*
X81280Y284480D01*
X123190Y148920D02*
X123190Y204470D01*
X157480Y238760D01*
X182880Y238760D01*
X157480Y309880D02*
X182880Y309880D01*
X97955Y91440D02*
X60960Y91440D01*
X40640Y71120D01*
X40640Y35560D01*
X110490Y54610D02*
X110490Y110490D01*
X110490Y54610D02*
X91440Y35560D01*
X110490Y110490D02*
X60960Y160020D01*
X60960Y193040D02*
X60960Y160020D01*
X135725Y91440D02*
X172720Y91440D01*
X193040Y71120D01*
X193040Y35560D01*
X123190Y54610D02*
X123190Y110490D01*
X123190Y54610D02*
X142240Y35560D01*
X123190Y110490D02*
X172720Y160020D01*
X172720Y193040D01*
G54D14*
X-2540Y-2540D02*
X-2540Y33968D01*
X-2540Y-2540D02*
X33968Y-2540D01*
X362540Y-2540D02*
X326032Y-2540D01*
X362540Y-2540D02*
X362540Y33968D01*
X362540Y362540D02*
X362540Y326032D01*
X362540Y362540D02*
X326032Y362540D01*
X-2540Y362540D02*
X33968Y362540D01*
X-2540Y362540D02*
X-2540Y326032D01*
X-52540Y-2540D02*
X-152540Y-2540D01*
X-102540Y-52540D02*
X-102540Y47460D01*
X-140040Y-2540D02*
G75*
D01*
G02X-140040Y-2540I37500J0*
G01*
X412540Y-2540D02*
X512540Y-2540D01*
X462540Y-52540D02*
X462540Y47460D01*
X425040Y-2540D02*
G75*
D01*
G02X425040Y-2540I37500J0*
G01*
X450040Y-2540D02*
G75*
D01*
G02X450040Y-2540I12500J0*
G01*
X-52540Y362540D02*
X-152540Y362540D01*
X-102540Y312540D02*
X-102540Y412540D01*
X-140040Y362540D02*
G75*
D01*
G02X-140040Y362540I37500J0*
G01*
X-127540Y362540D02*
G75*
D01*
G02X-127540Y362540I25000J0*
G01*
X-115040Y362540D02*
G75*
D01*
G02X-115040Y362540I12500J0*
G01*
G54D15*
X182880Y238760D03*
X182880Y309880D03*
X60960Y91440D03*
X60960Y193040D03*
X172720Y193040D03*
X172720Y91440D03*
X208280Y91440D03*
X142240Y193040D03*
X91440Y193040D03*
X320040Y294640D03*
X320040Y345440D03*
X81280Y345440D03*
X132080Y345440D03*
X248920Y172720D03*
X223520Y172720D03*
X274320Y172720D03*
X132080Y284480D03*
X106680Y284480D03*
X81280Y284480D03*
X81280Y309880D03*
X132080Y309880D03*
X106680Y309880D03*
X157480Y309880D03*
G54D16*
X40640Y35560D03*
X193040Y35560D03*
G54D17*
X35140Y30060D02*
X46140Y30060D01*
X46140Y41060D01*
X35140Y41060D01*
X35140Y30060D01*D02*
X187540Y30060D02*
X198540Y30060D01*
X198540Y41060D01*
X187540Y41060D01*
X187540Y30060D01*D02*
X203780Y137740D02*
X212780Y137740D01*
X212780Y146740D01*
X203780Y146740D01*
X203780Y137740D01*D02*
X315040Y264240D02*
X325040Y264240D01*
X325040Y274240D01*
X315040Y274240D01*
X315040Y264240D01*D02*
X152980Y279980D02*
X161980Y279980D01*
X161980Y288980D01*
X152980Y288980D01*
X152980Y279980D01*D02*
G54D18*
X91440Y35560D03*
X142240Y35560D03*
G54D19*
X208280Y142240D03*
X157480Y284480D03*
G54D20*
X97790Y94920D03*
X110490Y94920D03*
X123190Y94920D03*
X135890Y94920D03*
X110490Y148920D03*
X97790Y148920D03*
X123190Y148920D03*
X135890Y148920D03*
G54D21*
X320040Y269240D03*
G54D22*
X320040Y167640D03*

M02*
